<?xml version="1.0" encoding="UTF-8" standalone="no"?>
<svg
   xmlns:dc="http://purl.org/dc/elements/1.1/"
   xmlns:cc="http://creativecommons.org/ns#"
   xmlns:rdf="http://www.w3.org/1999/02/22-rdf-syntax-ns#"
   xmlns:svg="http://www.w3.org/2000/svg"
   xmlns="http://www.w3.org/2000/svg"
   viewBox="0 0 153.58 183.38133"
   height="183.38133"
   width="153.58"
   xml:space="preserve"
   id="svg2"
   version="1.1"><metadata
     id="metadata8"><rdf:RDF><cc:Work
         rdf:about=""><dc:format>image/svg+xml</dc:format><dc:type
           rdf:resource="http://purl.org/dc/dcmitype/StillImage" /></cc:Work></rdf:RDF></metadata><defs
     id="defs6"><clipPath
       id="clipPath18"
       clipPathUnits="userSpaceOnUse"><path
         id="path16"
         d="M 0,137.536 H 115.185 V 0 H 0 Z" /></clipPath></defs><g
     transform="matrix(1.3333333,0,0,-1.3333333,0,183.38133)"
     id="g10"><g
       id="g12"><g
         clip-path="url(#clipPath18)"
         id="g14"><g
           transform="translate(71.7402,1)"
           id="g20"><path
             id="path22"
             style="fill:none;stroke:#02a383;stroke-width:2;stroke-linecap:round;stroke-linejoin:round;stroke-miterlimit:10;stroke-dasharray:none;stroke-opacity:1"
             d="m 0,0 c 4.532,0 8.484,3.953 8.484,8.483 v 19.815 h 5.665 c 3.398,0 5.663,2.264 5.663,5.664 V 90.551 H -48.11 V 33.96 c 0,-3.398 2.265,-5.665 5.665,-5.665 h 5.665 V 8.483 c 0,-4.532 3.952,-8.483 8.484,-8.483 4.53,0 8.484,3.951 8.484,8.483 V 28.295 H -8.483 V 8.483 C -8.483,3.953 -4.533,0 0,0 Z" /></g><g
           transform="translate(105.7012,34.96)"
           id="g24"><path
             id="path26"
             style="fill:none;stroke:#02a383;stroke-width:2;stroke-linecap:round;stroke-linejoin:round;stroke-miterlimit:10;stroke-dasharray:none;stroke-opacity:1"
             d="m 0,0 c 4.532,0 8.483,3.952 8.483,8.484 v 39.627 c 0,4.508 -3.951,8.48 -8.483,8.48 -4.531,0 -8.481,-3.972 -8.481,-8.48 V 8.484 C -8.481,3.955 -4.532,0 0,0 Z" /></g><g
           transform="translate(9.4805,34.96)"
           id="g28"><path
             id="path30"
             style="fill:none;stroke:#02a383;stroke-width:2;stroke-linecap:round;stroke-linejoin:round;stroke-miterlimit:10;stroke-dasharray:none;stroke-opacity:1"
             d="m 0,0 c 4.535,0 8.487,3.952 8.487,8.484 v 39.627 c 0,4.508 -3.952,8.48 -8.487,8.48 -4.529,0 -8.48,-3.972 -8.48,-8.48 V 8.484 C -8.48,3.955 -4.529,0 0,0 Z" /></g><g
           transform="translate(71.751,107.1108)"
           id="g32"><path
             id="path34"
             style="fill:none;stroke:#02a383;stroke-width:2;stroke-linecap:round;stroke-linejoin:round;stroke-miterlimit:10;stroke-dasharray:none;stroke-opacity:1"
             d="m 0,0 c -2.345,0 -4.244,1.899 -4.244,4.242 0,2.343 1.899,4.245 4.244,4.245 2.343,0 4.243,-1.902 4.243,-4.245 C 4.243,1.899 2.343,0 0,0 Z m -28.317,0 c -2.344,0 -4.244,1.899 -4.244,4.242 0,2.343 1.9,4.245 4.244,4.245 2.342,0 4.244,-1.902 4.244,-4.245 C -24.073,1.899 -25.975,0 -28.317,0 Z m 41.32,28.57 c -1.131,1.141 -2.817,1.141 -3.949,0 L 1.456,20.998 1.105,20.646 c -4.504,2.257 -9.557,3.384 -15.18,3.396 h -0.083 -0.001 -0.082 c -5.626,-0.012 -10.678,-1.139 -15.182,-3.396 l -0.35,0.352 -7.598,7.572 c -1.133,1.141 -2.819,1.141 -3.952,0 -1.133,-1.132 -1.133,-2.815 0,-3.946 l 7.351,-7.353 c -2.37,-1.581 -4.515,-3.517 -6.384,-5.729 -4.471,-5.298 -7.321,-12.197 -7.714,-19.667 -0.004,-0.079 -0.012,-0.155 -0.016,-0.233 -0.023,-0.509 -0.035,-1.019 -0.035,-1.533 h 67.922 c 0,0.514 -0.011,1.024 -0.032,1.533 -0.004,0.078 -0.012,0.154 -0.018,0.233 -0.392,7.47 -3.243,14.369 -7.715,19.667 -1.866,2.212 -4.015,4.148 -6.382,5.729 l 7.349,7.353 c 1.136,1.131 1.136,2.814 0,3.946 z" /></g></g></g></g></svg>