<?xml version="1.0" encoding="UTF-8" standalone="no"?>
<svg
   xmlns:dc="http://purl.org/dc/elements/1.1/"
   xmlns:cc="http://creativecommons.org/ns#"
   xmlns:rdf="http://www.w3.org/1999/02/22-rdf-syntax-ns#"
   xmlns:svg="http://www.w3.org/2000/svg"
   xmlns="http://www.w3.org/2000/svg"
   viewBox="0 0 148.29066 181.50533"
   height="181.50533"
   width="148.29066"
   xml:space="preserve"
   id="svg2"
   version="1.1"><metadata
     id="metadata8"><rdf:RDF><cc:Work
         rdf:about=""><dc:format>image/svg+xml</dc:format><dc:type
           rdf:resource="http://purl.org/dc/dcmitype/StillImage" /></cc:Work></rdf:RDF></metadata><defs
     id="defs6"><clipPath
       id="clipPath18"
       clipPathUnits="userSpaceOnUse"><path
         id="path16"
         d="M 0,136.129 H 111.218 V 0 H 0 Z" /></clipPath></defs><g
     transform="matrix(1.3333333,0,0,-1.3333333,0,181.50533)"
     id="g10"><g
       id="g12"><g
         clip-path="url(#clipPath18)"
         id="g14"><g
           transform="translate(75.3301,113.7114)"
           id="g20"><path
             id="path22"
             style="fill:none;stroke:#02a383;stroke-width:2;stroke-linecap:round;stroke-linejoin:round;stroke-miterlimit:10;stroke-dasharray:none;stroke-opacity:1"
             d="M 0,0 C 4.681,5.679 7.84,13.559 6.979,21.418 0.236,21.145 -7.937,16.928 -12.775,11.261 -17.116,6.234 -20.917,-1.789 -19.898,-9.492 -12.37,-10.079 -4.687,-5.667 0,0 Z m 16.888,-49.85 c -0.17,16.987 13.853,25.133 14.479,25.539 -7.879,11.529 -20.151,13.108 -24.525,13.29 -10.446,1.058 -20.381,-6.15 -25.682,-6.15 -5.287,0 -13.468,5.994 -22.131,5.837 -11.384,-0.169 -21.882,-6.621 -27.744,-16.817 -11.827,-20.524 -3.029,-50.931 8.5,-67.578 5.633,-8.148 12.35,-17.301 21.17,-16.974 8.494,0.339 11.705,5.497 21.975,5.497 10.269,0 13.155,-5.497 22.142,-5.328 9.141,0.17 14.931,8.305 20.525,16.477 6.468,9.453 9.132,18.605 9.291,19.075 -0.203,0.093 -17.823,6.842 -18,27.132 z" /></g></g></g></g></svg>