<?xml version="1.0" encoding="UTF-8" standalone="no"?>
<svg
   xmlns:dc="http://purl.org/dc/elements/1.1/"
   xmlns:cc="http://creativecommons.org/ns#"
   xmlns:rdf="http://www.w3.org/1999/02/22-rdf-syntax-ns#"
   xmlns:svg="http://www.w3.org/2000/svg"
   xmlns="http://www.w3.org/2000/svg"
   viewBox="0 0 92.986931 129.82294"
   width="151"
   xml:space="preserve"
   id="svg2"
   version="1.1"><metadata
     id="metadata8"><rdf:RDF><cc:Work
         rdf:about=""><dc:format>image/svg+xml</dc:format><dc:type
           rdf:resource="http://purl.org/dc/dcmitype/StillImage" /></cc:Work></rdf:RDF></metadata><defs
     id="defs6"><clipPath
       id="clipPath18"
       clipPathUnits="userSpaceOnUse"><path
         id="path16"
         d="M 0,97.367 H 69.74 V 0 H 0 Z" /></clipPath></defs><g
     transform="matrix(1.3333333,0,0,-1.3333333,0,129.82293)"
     id="g10"><g
       id="g12"><g
         clip-path="url(#clipPath18)"
         id="g14"><g
           transform="translate(67.7754,24.5918)"
           id="g20"><path
             id="path22"
             style="fill:none;stroke:#02a383;stroke-width:1;stroke-linecap:round;stroke-linejoin:round;stroke-miterlimit:10;stroke-dasharray:none;stroke-opacity:1"
             d="m 0,0 -4.949,4.949 1.06,1.061 c 1.757,1.758 1.757,4.607 0,6.364 -1.757,1.758 -4.606,1.758 -6.364,0 l -1.06,-1.061 -4.244,4.244 c -1.952,1.952 -5.118,1.952 -7.07,0 l -4.95,-4.951 1.06,-1.06 c 1.758,-1.758 1.758,-4.607 0,-6.364 -1.756,-1.757 -4.606,-1.757 -6.364,0 l -1.06,1.06 L -38.184,0 c -1.953,-1.953 -1.953,-5.118 0,-7.071 l 15.557,-15.557 c 1.952,-1.952 5.118,-1.952 7.07,0 L 0,-7.071 C 1.953,-5.118 1.953,-1.953 0,0 Z" /></g><g
           transform="translate(36.2588,39.1377)"
           id="g24"><path
             id="path26"
             style="fill:none;stroke:#02a383;stroke-width:1;stroke-linecap:round;stroke-linejoin:round;stroke-miterlimit:10;stroke-dasharray:none;stroke-opacity:1"
             d="m 0,0 -1.061,1.061 4.951,4.95 c 1.952,1.952 1.952,5.117 0,7.071 l -4.244,4.242 -1.06,-1.061 c -1.757,-1.757 -4.607,-1.757 -6.364,10e-4 -1.757,1.757 -1.757,4.606 0,6.363 l 1.06,1.061 -4.949,4.95 c -1.953,1.953 -5.118,1.953 -7.071,0 L -34.294,13.082 c -1.953,-1.954 -1.953,-5.119 0,-7.071 l 15.556,-15.557 c 1.953,-1.953 5.118,-1.953 7.071,0 l 4.242,4.242 1.061,-1.06 c 1.758,-1.757 4.607,-1.757 6.364,0 1.758,1.758 1.758,4.606 0,6.364 z" /></g><g
           transform="translate(56.1084,63.2295)"
           id="g28"><path
             id="path30"
             style="fill:none;stroke:#02a383;stroke-width:1;stroke-linecap:round;stroke-linejoin:round;stroke-miterlimit:10;stroke-dasharray:none;stroke-opacity:1"
             d="m 0,0 c -1.758,1.757 -1.758,4.606 0,6.364 1.757,1.757 4.606,1.758 6.364,0 l 1.061,-1.061 4.242,4.243 c 1.953,1.953 1.953,5.118 0,7.071 L -3.89,32.173 c -1.952,1.953 -5.118,1.953 -7.07,0 L -26.517,16.617 c -1.952,-1.952 -1.953,-5.118 0,-7.071 l 4.95,-4.95 -1.061,-1.06 c -1.757,-1.758 -1.757,-4.607 0,-6.364 1.758,-1.758 4.607,-1.758 6.364,-0.001 l 1.061,1.061 4.243,-4.242 c 1.952,-1.953 5.118,-1.953 7.07,0 l 4.951,4.949 z" /></g></g></g></g></svg>




             