<?xml version="1.0" encoding="UTF-8" standalone="no"?>
<svg
   xmlns:dc="http://purl.org/dc/elements/1.1/"
   xmlns:cc="http://creativecommons.org/ns#"
   xmlns:rdf="http://www.w3.org/1999/02/22-rdf-syntax-ns#"
   xmlns:svg="http://www.w3.org/2000/svg"
   xmlns="http://www.w3.org/2000/svg"
   viewBox="0 0 55.816399 55.817734"
   width="149"
   xml:space="preserve"
   id="svg2"
   version="1.1"><metadata
     id="metadata8"><rdf:RDF><cc:Work
         rdf:about=""><dc:format>image/svg+xml</dc:format><dc:type
           rdf:resource="http://purl.org/dc/dcmitype/StillImage" /></cc:Work></rdf:RDF></metadata><defs
     id="defs6"><clipPath
       id="clipPath18"
       clipPathUnits="userSpaceOnUse"><path
         id="path16"
         d="M 0,41.863 H 41.862 V 0 H 0 Z" /></clipPath></defs><g
     transform="matrix(1.3333333,0,0,-1.3333333,0,55.817733)"
     id="g10"><g
       id="g12"><g
         clip-path="url(#clipPath18)"
         id="g14"><g
           transform="translate(40.0234,24.4673)"
           id="g20"><path
             id="path22"
             style="fill:none;stroke:#02a383;stroke-width:0.75;stroke-linecap:butt;stroke-linejoin:miter;stroke-miterlimit:10;stroke-dasharray:none;stroke-opacity:1"
             d="m 0,0 -15.557,15.556 c -1.953,1.953 -5.118,1.953 -7.071,0 l -4.242,-4.243 -1.061,1.061 c -1.757,1.758 -4.607,1.757 -6.364,0 -1.758,-1.757 -1.758,-4.606 0,-6.364 L -33.234,4.95 -38.185,0 c -1.952,-1.953 -1.952,-5.119 0,-7.071 l 4.244,-4.243 1.06,1.061 c 1.758,1.757 4.607,1.757 6.364,0 1.757,-1.757 1.757,-4.607 0,-6.365 l -1.06,-1.06 4.949,-4.949 c 1.953,-1.954 5.119,-1.954 7.071,0 L 0,-7.071 C 1.952,-5.119 1.952,-1.953 0,0 Z" /></g></g></g></g></svg>