<?xml version="1.0" encoding="UTF-8" standalone="no"?>
<svg
   xmlns:dc="http://purl.org/dc/elements/1.1/"
   xmlns:cc="http://creativecommons.org/ns#"
   xmlns:rdf="http://www.w3.org/1999/02/22-rdf-syntax-ns#"
   xmlns:svg="http://www.w3.org/2000/svg"
   xmlns="http://www.w3.org/2000/svg"
   viewBox="0 0 169.416 151.028"
   height="151.028"
   width="169.416"
   xml:space="preserve"
   id="svg2"
   version="1.1"><metadata
     id="metadata8"><rdf:RDF><cc:Work
         rdf:about=""><dc:format>image/svg+xml</dc:format><dc:type
           rdf:resource="http://purl.org/dc/dcmitype/StillImage" /></cc:Work></rdf:RDF></metadata><defs
     id="defs6"><clipPath
       id="clipPath18"
       clipPathUnits="userSpaceOnUse"><path
         id="path16"
         d="M 0,113.271 H 127.063 V 0 H 0 Z" /></clipPath></defs><g
     transform="matrix(1.3333333,0,0,-1.3333333,0,151.028)"
     id="g10"><g
       id="g12"><g
         clip-path="url(#clipPath18)"
         id="g14"><g
           transform="translate(103.8271,76.2051)"
           id="g20"><path
             id="path22"
             style="fill:none;stroke:#02a383;stroke-width:2;stroke-linecap:round;stroke-linejoin:round;stroke-miterlimit:10;stroke-dasharray:none;stroke-opacity:1"
             d="m 0,0 c -1.298,0.447 -2.643,0.87 -4.026,1.269 0.227,0.928 0.435,1.845 0.622,2.746 3.048,14.794 1.054,26.71 -5.749,30.634 -6.525,3.763 -17.195,-0.16 -27.971,-9.539 -1.036,-0.901 -2.075,-1.856 -3.113,-2.857 -0.693,0.663 -1.384,1.302 -2.073,1.914 -11.294,10.028 -22.614,14.254 -29.412,10.318 -6.518,-3.773 -8.447,-14.976 -5.704,-28.996 0.265,-1.354 0.574,-2.736 0.924,-4.142 -1.602,-0.455 -3.148,-0.94 -4.629,-1.456 -13.24,-4.617 -21.696,-11.851 -21.696,-19.355 0,-7.751 9.078,-15.526 22.868,-20.239 1.089,-0.372 2.218,-0.725 3.382,-1.057 -0.377,-1.521 -0.706,-3.011 -0.983,-4.465 -2.615,-13.777 -0.572,-24.716 5.929,-28.463 6.714,-3.873 17.984,0.107 28.956,9.699 0.867,0.758 1.737,1.561 2.61,2.404 1.13,-1.087 2.258,-2.118 3.38,-3.084 10.629,-9.145 21.126,-12.84 27.622,-9.08 6.707,3.884 8.887,15.634 6.057,29.931 -0.216,1.092 -0.468,2.208 -0.75,3.343 0.792,0.234 1.568,0.475 2.326,0.726 14.337,4.751 23.665,12.43 23.665,20.285 C 22.235,-11.933 13.507,-4.649 0,0 Z" /></g><g
           transform="translate(92.0049,106.2261)"
           id="g24"><path
             id="path26"
             style="fill:none;stroke:#02a383;stroke-width:2;stroke-linecap:round;stroke-linejoin:round;stroke-miterlimit:10;stroke-dasharray:none;stroke-opacity:1"
             d="m 0,0 c 4.187,-2.416 5.816,-12.155 3.186,-24.928 -0.168,-0.815 -0.358,-1.645 -0.563,-2.486 -5.188,1.197 -10.823,2.088 -16.722,2.641 -3.436,4.895 -6.997,9.343 -10.572,13.195 0.961,0.924 1.921,1.806 2.876,2.638 C -12.562,-0.905 -3.932,2.267 0,0 Z m -11.021,-59.661 c -1.956,-3.39 -3.962,-6.625 -6,-9.68 -3.71,-0.265 -7.545,-0.402 -11.453,-0.402 -3.891,0 -7.677,0.12 -11.323,0.358 -2.119,3.094 -4.17,6.339 -6.113,9.695 h 10e-4 c -1.938,3.346 -3.721,6.721 -5.336,10.076 1.615,3.364 3.393,6.742 5.32,10.082 h -0.001 c 1.932,3.349 3.964,6.578 6.065,9.654 3.718,0.28 7.532,0.427 11.387,0.427 3.872,0 7.692,-0.148 11.41,-0.431 2.067,-3.053 4.086,-6.272 6.025,-9.621 1.962,-3.388 3.763,-6.743 5.393,-10.036 -1.626,-3.347 -3.422,-6.736 -5.375,-10.122 z m 8.254,3.957 c 1.673,-3.81 3.081,-7.496 4.201,-11.002 -3.626,-0.828 -7.541,-1.493 -11.666,-1.988 1.297,2.057 2.58,4.18 3.838,6.364 1.275,2.208 2.485,4.422 3.627,6.626 z m -25.5,-28.245 c -2.531,2.733 -5.057,5.754 -7.523,9.005 2.394,-0.093 4.836,-0.142 7.316,-0.142 2.549,0 5.07,0.058 7.55,0.169 -2.436,-3.31 -4.894,-6.337 -7.343,-9.032 z m -18.338,15.16 c -4.098,0.457 -7.96,1.075 -11.528,1.852 1.105,3.566 2.466,7.272 4.055,11.041 1.119,-2.162 2.302,-4.322 3.545,-6.471 1.266,-2.189 2.58,-4.332 3.928,-6.422 z m -3.949,31.926 c -1.237,-2.144 -2.414,-4.304 -3.53,-6.467 -1.557,3.689 -2.888,7.317 -3.975,10.821 3.569,0.799 7.373,1.452 11.338,1.947 -1.313,-2.05 -2.593,-4.151 -3.833,-6.301 z m 22.14,21.464 c 2.464,-2.67 4.933,-5.651 7.359,-8.884 -2.445,0.115 -4.922,0.175 -7.419,0.175 -2.473,0 -4.931,-0.059 -7.362,-0.172 2.43,3.204 4.919,6.181 7.422,8.881 z m 22,-21.428 c -1.238,2.139 -2.509,4.225 -3.804,6.255 3.99,-0.505 7.814,-1.174 11.404,-1.993 -1.078,-3.456 -2.421,-7.066 -4.003,-10.769 -1.134,2.153 -2.333,4.325 -3.597,6.507 z m -53.947,13.322 c -2.351,12.011 -0.79,21.072 3.138,23.345 4.185,2.423 13.436,-1.031 23.188,-9.688 0.623,-0.554 1.249,-1.133 1.876,-1.733 -3.633,-3.902 -7.224,-8.344 -10.654,-13.184 -5.881,-0.545 -11.512,-1.421 -16.688,-2.593 -0.326,1.309 -0.614,2.594 -0.86,3.853 z m -6.047,-41.163 c -6.099,2.084 -11.134,4.793 -14.587,7.749 -3.102,2.656 -4.667,5.294 -4.667,7.434 0,4.553 6.789,10.361 18.113,14.31 1.374,0.479 2.812,0.931 4.304,1.354 1.565,-5.09 3.618,-10.412 6.095,-15.794 -2.509,-5.462 -4.591,-10.869 -6.171,-16.02 -1.065,0.306 -2.096,0.628 -3.087,0.967 z m 18.041,-34.084 c -3.852,-1.36 -6.919,-1.399 -8.773,-0.331 -3.945,2.275 -5.585,11.059 -3.348,22.841 0.257,1.348 0.562,2.735 0.913,4.152 5.123,-1.134 10.793,-1.948 16.853,-2.44 3.461,-4.87 7.085,-9.345 10.737,-13.262 -0.798,-0.771 -1.593,-1.505 -2.383,-2.196 -4.853,-4.242 -9.715,-7.251 -13.999,-8.764 z m 51.942,23.875 c 1.252,-6.321 1.431,-12.037 0.602,-16.504 -0.745,-4.016 -2.242,-6.692 -4.095,-7.765 -3.941,-2.28 -12.37,0.684 -21.46,8.506 -1.042,0.896 -2.092,1.855 -3.144,2.867 3.524,3.855 7.045,8.335 10.483,13.311 6.047,0.537 11.757,1.414 16.936,2.611 0.256,-1.029 0.484,-2.039 0.678,-3.026 z m 5.137,10.179 c -0.684,-0.227 -1.386,-0.445 -2.101,-0.658 -1.582,5.011 -3.718,10.339 -6.333,15.844 2.495,5.374 4.549,10.635 6.087,15.612 1.279,-0.37 2.522,-0.76 3.718,-1.172 11.572,-3.985 18.632,-9.875 18.632,-14.413 0,-4.836 -7.624,-11.111 -20.003,-15.213 z" /></g><g
           transform="translate(63.5313,67.9082)"
           id="g28"><path
             id="path30"
             style="fill:none;stroke:#02a383;stroke-width:2;stroke-linecap:round;stroke-linejoin:round;stroke-miterlimit:10;stroke-dasharray:none;stroke-opacity:1"
             d="m 0,0 c 6.168,0 11.168,-5 11.168,-11.167 0,-6.169 -5,-11.168 -11.168,-11.168 -6.168,0 -11.168,4.999 -11.168,11.168 C -11.168,-5 -6.168,0 0,0" /></g></g></g></g></svg>